<svg width="18" height="19" viewBox="0 0 18 19" fill="none" xmlns="http://www.w3.org/2000/svg">
<path d="M9 0.75C11.3206 0.75 13.5462 1.67187 15.1872 3.31282C16.8281 4.95376 17.75 7.17936 17.75 9.5C17.75 11.8206 16.8281 14.0462 15.1872 15.6872C13.5462 17.3281 11.3206 18.25 9 18.25C6.67936 18.25 4.45376 17.3281 2.81282 15.6872C1.17187 14.0462 0.25 11.8206 0.25 9.5C0.25 7.17936 1.17187 4.95376 2.81282 3.31282C4.45376 1.67187 6.67936 0.75 9 0.75ZM9 17C10.9891 17 12.8968 16.2098 14.3033 14.8033C15.7098 13.3968 16.5 11.4891 16.5 9.5C16.5 7.51088 15.7098 5.60322 14.3033 4.1967C12.8968 2.79018 10.9891 2 9 2C7.01088 2 5.10322 2.79018 3.6967 4.1967C2.29018 5.60322 1.5 7.51088 1.5 9.5C1.5 11.4891 2.29018 13.3968 3.6967 14.8033C5.10322 16.2098 7.01088 17 9 17ZM9.9375 13.5625C9.9375 13.8111 9.83873 14.0496 9.66291 14.2254C9.4871 14.4012 9.24864 14.5 9 14.5C8.75136 14.5 8.5129 14.4012 8.33709 14.2254C8.16127 14.0496 8.0625 13.8111 8.0625 13.5625C8.0625 13.3139 8.16127 13.0754 8.33709 12.8996C8.5129 12.7238 8.75136 12.625 9 12.625C9.24864 12.625 9.4871 12.7238 9.66291 12.8996C9.83873 13.0754 9.9375 13.3139 9.9375 13.5625ZM9 4.5C9.16576 4.5 9.32473 4.56585 9.44194 4.68306C9.55915 4.80027 9.625 4.95924 9.625 5.125V10.75C9.625 10.9158 9.55915 11.0747 9.44194 11.1919C9.32473 11.3092 9.16576 11.375 9 11.375C8.83424 11.375 8.67527 11.3092 8.55806 11.1919C8.44085 11.0747 8.375 10.9158 8.375 10.75V5.125C8.375 4.95924 8.44085 4.80027 8.55806 4.68306C8.67527 4.56585 8.83424 4.5 9 4.5Z" fill="#FF2D2D"/>
</svg>
